<?xml version="1.0" standalone="no"?>
<!DOCTYPE svg PUBLIC "-//W3C//DTD SVG 20010904//EN"
 "http://www.w3.org/TR/2001/REC-SVG-20010904/DTD/svg10.dtd">
<svg version="1.0" xmlns="http://www.w3.org/2000/svg"
 width="864.000000pt" height="864.000000pt" viewBox="0 0 864.000000 864.000000"
 preserveAspectRatio="xMidYMid meet">
<metadata>
Created by potrace 1.14, written by Peter Selinger 2001-2017
</metadata>
<g transform="translate(0.000000,864.000000) scale(0.100000,-0.100000)"
fill="#000000" stroke="none">
<path d="M1180 8624 c-110 -29 -152 -47 -240 -106 -51 -34 -180 -157 -182
-175 0 -4 -12 -25 -25 -47 -26 -41 -67 -143 -80 -198 -5 -18 -8 -1723 -8
-3788 0 -3695 0 -3756 19 -3810 11 -30 21 -61 22 -68 5 -30 91 -161 138 -211
95 -100 233 -178 371 -209 40 -9 241 -8 285 1 73 16 176 62 269 121 39 25 75
46 80 46 5 0 11 3 13 8 2 4 23 18 48 31 25 14 47 27 50 30 3 3 16 12 30 20 83
48 306 186 318 197 7 8 11 18 8 22 -7 11 22 134 34 146 6 6 10 16 10 24 0 24
87 139 138 181 26 22 68 51 94 65 43 23 140 57 156 55 4 -1 9 0 12 1 3 1 88 3
190 4 102 2 193 6 202 10 15 7 17 29 17 209 0 111 0 220 1 242 0 34 8 48 53
96 28 31 102 109 162 174 61 65 116 124 123 131 6 7 12 15 12 17 0 2 -46 4
-102 4 -98 0 -188 7 -253 19 -16 3 -41 7 -55 9 -79 11 -271 66 -340 97 -136
61 -234 113 -310 164 -280 187 -483 420 -626 719 -31 63 -57 121 -58 127 -2 7
-6 20 -9 28 -23 53 -62 195 -72 260 -2 14 -8 50 -13 80 -6 30 -8 58 -6 62 2 4
1 9 -3 11 -5 3 -8 27 -8 53 l1 48 404 1 c450 1 446 1 515 69 19 20 35 38 36
41 0 2 5 18 12 33 10 25 13 58 8 123 -2 28 -60 106 -99 131 -21 14 -53 29 -72
33 -19 4 -209 8 -421 7 l-386 0 1 207 1 206 390 1 c250 1 405 6 431 13 51 14
116 69 140 118 11 25 17 58 17 96 -2 80 -40 142 -114 182 l-54 29 -408 0 -409
0 5 23 c2 13 0 26 -5 29 -4 3 -5 11 -1 17 4 6 6 27 5 47 -2 19 -2 46 -1 60 1
14 1 73 1 133 l1 107 36 1 c20 0 202 0 405 0 403 0 405 0 470 59 49 45 70 94
69 162 -1 64 -21 105 -74 153 -67 59 -85 61 -516 61 l-392 -1 4 45 c24 257 78
448 192 675 52 103 160 265 230 344 294 334 663 537 1093 602 134 20 476 15
512 -7 4 -3 8 -2 8 3 0 8 -175 115 -197 121 -7 2 -13 8 -13 13 0 5 -4 9 -10 9
-9 0 -158 88 -170 100 -3 3 -25 16 -50 29 -25 13 -52 30 -60 36 -8 7 -31 22
-50 33 -42 23 -445 267 -480 290 -14 9 -27 17 -30 17 -3 0 -25 14 -50 30 -110
70 -303 185 -311 185 -5 0 -9 5 -9 10 0 6 -7 10 -15 10 -8 0 -15 4 -15 9 0 5
-11 12 -25 15 -14 4 -25 11 -25 16 0 6 -4 10 -9 10 -5 0 -48 24 -95 53 -48 28
-99 59 -114 68 -15 9 -79 48 -142 86 -63 38 -135 81 -160 95 -41 22 -132 57
-163 62 -7 1 -16 4 -22 7 -23 12 -232 8 -285 -7z"/>
<path d="M4850 6608 c11 -12 20 -28 20 -35 0 -7 5 -13 10 -13 6 0 10 -7 10
-15 0 -8 4 -15 8 -15 7 0 33 -46 91 -158 32 -64 101 -237 107 -269 3 -14 9
-34 15 -45 5 -10 7 -23 4 -28 -3 -6 -2 -10 3 -10 5 0 9 -6 9 -12 0 -7 3 -26 7
-43 3 -16 9 -46 12 -65 3 -19 7 -40 9 -47 3 -10 13 -103 19 -171 1 -15 -33
-17 -404 -18 -365 0 -409 -2 -448 -18 -81 -34 -142 -140 -129 -222 14 -82 84
-161 164 -183 20 -6 153 -10 297 -10 144 0 320 -1 392 -1 l130 0 0 -207 -1
-208 -400 -1 c-379 0 -402 -2 -445 -21 -115 -52 -167 -170 -121 -276 29 -68
87 -121 143 -131 13 -3 25 -5 28 -6 3 -1 183 -2 400 -2 l395 -1 0 -206 0 -206
-390 -1 c-287 -1 -401 -4 -430 -14 -120 -38 -187 -158 -153 -273 13 -42 86
-127 109 -127 8 0 21 -6 27 -12 10 -10 107 -13 415 -14 222 0 408 -3 414 -7 7
-4 10 -13 8 -20 -2 -7 -6 -39 -10 -72 -9 -105 -58 -337 -75 -360 -4 -5 -16
-37 -26 -70 -28 -91 -172 -364 -214 -405 -3 -3 -25 -32 -49 -65 -62 -85 -231
-250 -330 -324 -217 -160 -453 -267 -708 -320 l-88 -18 -1 -276 c0 -168 3
-277 9 -277 5 0 29 14 54 30 24 17 46 30 48 30 3 0 29 16 59 35 30 19 59 35
65 35 5 0 11 4 13 8 2 6 143 93 283 175 11 7 22 15 25 18 3 3 17 12 33 20 15
8 160 95 323 194 162 99 314 191 337 204 23 13 45 29 49 35 4 6 8 7 8 2 0 -5
8 -2 18 6 9 8 73 49 142 90 69 42 185 112 258 157 74 44 135 81 137 81 2 0 23
13 47 28 24 16 59 38 78 48 19 10 39 22 45 27 37 28 85 55 85 49 0 -4 4 -2 8
3 4 6 29 24 57 40 27 16 54 33 60 37 5 5 48 32 95 59 47 27 92 54 100 59 182
113 344 210 350 210 5 0 15 6 22 14 8 7 32 23 54 35 33 18 135 80 184 111 8 5
40 24 70 42 30 17 57 34 60 37 3 3 19 13 35 21 17 8 32 17 35 20 6 6 349 214
394 239 17 9 39 24 50 33 11 10 26 18 33 18 7 0 13 4 13 10 0 5 3 9 8 8 4 -1
33 14 65 35 31 20 60 37 63 37 5 0 68 39 158 99 49 32 156 136 156 150 0 6 4
11 9 11 7 0 84 133 86 150 1 3 6 21 13 41 24 69 26 85 28 214 2 138 -13 214
-64 310 -11 22 -27 51 -34 65 -33 63 -147 174 -232 225 -34 20 -81 50 -106 66
-25 16 -54 33 -65 39 -11 6 -29 16 -40 23 -111 67 -151 92 -155 97 -3 4 -20
13 -37 21 -18 8 -33 17 -33 21 0 5 -5 8 -11 8 -6 0 -31 14 -56 30 -24 17 -48
30 -54 30 -5 0 -9 3 -9 8 0 4 -13 13 -29 20 -15 7 -48 25 -72 41 -59 38 -177
110 -214 130 -16 9 -32 19 -35 22 -9 10 -261 159 -270 159 -4 0 -10 4 -12 8
-2 6 -259 166 -358 223 -14 8 -27 16 -30 19 -3 3 -18 13 -35 22 -29 16 -129
75 -184 109 -77 48 -390 238 -410 250 -14 8 -30 18 -35 22 -11 8 -441 268
-481 291 -11 7 -36 22 -55 34 -45 28 -56 28 -30 0z"/>
</g>
</svg>
